Coordinates
version=1
nRows=8
nColumns=27
inDegrees=yes

Units are S.I. units (second, meters, Newtons, ...)
If the header above contains a line with 'inDegrees', this indicates whether rotational values are in degrees (yes) or radians (no).

endheader
time	pelvis_rotation	pelvis_tilt	pelvis_list	pelvis_tx	pelvis_ty	pelvis_tz	hip_flexion_r	hip_adduction_r	hip_rotation_r	knee_angle_r	knee_rotation_r	knee_adduction_r	knee_angle_r_beta	ankle_angle_r	subtalar_angle_r	mtp_angle_r	hip_flexion_l	hip_adduction_l	hip_rotation_l	knee_angle_l	knee_rotation_l	knee_adduction_l	knee_angle_l_beta	ankle_angle_l	subtalar_angle_l	mtp_angle_l
     12.93500000	      2.46081788	    -50.68196213	      2.74303752	     -0.12363550	      0.77029023	     -1.18912299	    103.71793899	    -10.92412074	     -2.66097216	     67.11571040	      0.00000000	      4.18178702	      1.17139013	     11.71028385	      0.00000000	      0.00000000	    102.30645933	    -10.43196870	     -6.58960918	     63.62797313	      0.00000000	     -9.11306624	      1.11051763	     10.42385423	      0.00000000	      0.00000000
     12.94000000	      2.66183154	    -50.65486509	      2.55982600	     -0.12334189	      0.77036690	     -1.18926096	    103.57414578	    -11.19198253	     -3.04065499	     67.12451946	      0.00000000	      4.23960948	      1.17154387	     11.78875174	      0.00000000	      0.00000000	    102.35914799	    -10.18526327	     -6.22337209	     63.63757593	      0.00000000	     -9.09467448	      1.11068523	     10.43128172	      0.00000000	      0.00000000
     12.94500000	      2.84320914	    -50.67548912	      2.44054219	     -0.12326873	      0.77032530	     -1.18956447	    103.52688288	    -11.39711337	     -3.26125811	     67.12672586	      0.00000000	      4.14379213	      1.17158238	     11.80416859	      0.00000000	      0.00000000	    102.47195831	     -9.89091988	     -5.80193917	     63.63456613	      0.00000000	     -8.64695131	      1.11063270	     10.32127255	      0.00000000	      0.00000000
     12.95000000	      2.47145575	    -50.62970602	      2.69419376	     -0.12327551	      0.77031672	     -1.18949894	    103.62754144	    -11.00498112	     -2.74490833	     67.13310508	      0.00000000	      4.23317911	      1.17169372	     11.75630635	      0.00000000	      0.00000000	    102.25818510	    -10.35443290	     -6.48638121	     63.66328997	      0.00000000	     -9.10603181	      1.11113402	     10.48070285	      0.00000000	      0.00000000
     12.95500000	      2.73692157	    -50.64238765	      2.65333626	     -0.12321668	      0.77026782	     -1.18985921	    103.59289819	    -11.27052052	     -2.94010685	     67.15701305	      0.00000000	      4.15435925	      1.17211099	     11.77150761	      0.00000000	      0.00000000	    102.35367822	     -9.98864996	     -6.06814344	     63.64647582	      0.00000000	     -8.63839474	      1.11084056	     10.37122516	      0.00000000	      0.00000000
     12.96000000	      2.81864277	    -50.61110960	      2.71766083	     -0.12294701	      0.77036306	     -1.18987549	    103.54425289	    -11.38471681	     -3.02978438	     67.17831357	      0.00000000	      4.31365226	      1.17248276	     11.84037684	      0.00000000	      0.00000000	    102.28053784	     -9.98945639	     -6.20092969	     63.64632794	      0.00000000	     -9.07178666	      1.11083798	     10.49599838	      0.00000000	      0.00000000
     12.96500000	      2.05249788	    -50.53108049	      2.35231111	     -0.12290651	      0.77051843	     -1.18949762	    103.41871122	    -10.72127628	     -2.80980054	     67.03483161	      0.00000000	      4.19424375	      1.16997853	     11.73607189	      0.00000000	      0.00000000	    102.14857396	    -10.64334396	     -6.44040567	     63.72156915	      0.00000000	     -9.13400084	      1.11215119	     10.53936361	      0.00000000	      0.00000000
     12.97000000	      2.45864822	    -50.52342467	      2.61074194	     -0.12287550	      0.77049565	     -1.19002461	    103.45321647	    -11.05258140	     -2.78680973	     67.12088215	      0.00000000	      4.13693055	      1.17148039	     11.76375991	      0.00000000	      0.00000000	    102.12976585	    -10.20391982	     -6.24620281	     63.61889370	      0.00000000	     -8.65124570	      1.11035916	     10.40994195	      0.00000000	      0.00000000
